{"title":"Hansel and Gretel Witch Hunters 2013 UNRATED 1080p x264 - alrmot","uid":8487960,"size":7140814697,"categoryP":"video","categoryS":"hd___movies","magnet":"?xt=urn:btih:f3faee2968133237aff635cc79922f357985c963&amp;dn=Hansel+and+Gretel+Witch+Hunters+2013+UNRATED+1080p+x264+-+alrmot&amp;tr=udp%3A%2F%2Ftracker.openbittorrent.com%3A80&amp;tr=udp%3A%2F%2Fopen.demonii.com%3A1337&amp;tr=udp%3A%2F%2Ftracker.coppersurfer.tk%3A6969&amp;tr=udp%3A%2F%2Fexodus.desync.com%3A6969","seeders":0,"leechers":0,"uploader":".alrmothe","files":21,"time":1368921213,"description":"*********************************************************************\n\nHansel and Gretel Witch Hunters 2013 UNRATED 1080p x264 - alrmothe \n*********************************************************************\n\nTitle : Hansel and Gretel Witch Hunters\nYEAR: 2013\nGENRE : Action | Fantasy | Horror      \nimdb URL :http://www.imdb.com/title/tt1428538/\nOverall bit rate: 9645 kbps\nFormat version: Version 4 / Version 2\nFile size:  6.60 GiB\nDuration:  1h 37mn\nSub:Arabic,English\n*********************************************************************\n\nVideo\nFormat: Matroska\nFormat : AVC \nFormat/Info : Advanced Video Codec \nFormat profile : &lt;a class=&quot;__cf_email__&quot; href=&quot;/cdn-cgi/l/email-protection&quot; data-cfemail=&quot;e6ae8f818ea6aad2c8d7&quot;&gt;[email&amp;#160;protected]&lt;/a&gt;&lt;script data-cfhash='f9e31' type=&quot;text/javascript&quot;&gt;\n/* &lt;![CDATA[ */!function(){try{var t=&quot;currentScript&quot;in document?document.currentScript:function(){for(var t=document.getElementsByTagName(&quot;script&quot;),e=t.length;e--;)if(t[e].getAttribute(&quot;data-cfhash&quot;))return t[e]}();if(t&amp;&amp;t.previousSibling){var e,r,n,i,c=t.previousSibling,a=c.getAttribute(&quot;data-cfemail&quot;);if(a){for(e=&quot;&quot;,r=parseInt(a.substr(0,2),16),n=2;a.length-n;n+=2)i=parseInt(a.substr(n,2),16)^r,e+=String.fromCharCode(i);e=document.createTextNode(e),c.parentNode.replaceChild(e,c)}t.parentNode.removeChild(t);}}catch(u){}}()/* ]]&gt; */&lt;/script&gt; \nFormat settings, CABAC : Yes \nFormat settings, ReFrames : 2 frames  \nCodec ID : V_MPEG4/ISO/AVC  \nBit rate : 9000 kbps \nWidth : 1920 pixels \nHeight : 800 pixels \nDisplay aspect ratio : 2:40:1 \nFrame rate : 23.976 fps \nColor space : YUV \nChroma subsampling : 4:2:0 \nBit depth : 8 bits \nScan type : Progressive \nBits/(Pixel*Frame) : 0.244 \nStream size: 6.03 GiB \n\n\nAudio \nFormat: Ac3\nBit rate :640 Kbps\nChannel(s) : 6 channels\nChannel positions:Front: L C R, Side: L R, LFE\nSampling rate: 48.0 KHz\nBit depth: 16 bits\nCompression mode: Lossy\nStream size: 448 GiB\nLanguage : English\n\n******************************************************************\n\nScreenshots &lt;a href=&quot;\nhttp://img845.imageshack.us/img845/558/vlcsnap2013051823h54m19.png&quot; rel=&quot;nofollow&quot; target=&quot;_NEW&quot;&gt;\nhttp://img845.imageshack.us/img845/558/vlcsnap2013051823h54m19.png&lt;/a&gt; &lt;a href=&quot;\nhttp://img600.imageshack.us/img600/9180/vlcsnap2013051823h53m33.png&quot; rel=&quot;nofollow&quot; target=&quot;_NEW&quot;&gt;\nhttp://img600.imageshack.us/img600/9180/vlcsnap2013051823h53m33.png&lt;/a&gt; &lt;a href=&quot;\nhttp://img706.imageshack.us/img706/5616/vlcsnap2013051823h53m22.png&quot; rel=&quot;nofollow&quot; target=&quot;_NEW&quot;&gt;\nhttp://img706.imageshack.us/img706/5616/vlcsnap2013051823h53m22.png&lt;/a&gt; &lt;a href=&quot;\nhttp://img546.imageshack.us/img546/8503/vlcsnap2013051823h55m12.png&quot; rel=&quot;nofollow&quot; target=&quot;_NEW&quot;&gt;\nhttp://img546.imageshack.us/img546/8503/vlcsnap2013051823h55m12.png&lt;/a&gt; &lt;a href=&quot;\nhttp://img811.imageshack.us/img811/544/vlcsnap2013051823h56m00.png&quot; rel=&quot;nofollow&quot; target=&quot;_NEW&quot;&gt;\nhttp://img811.imageshack.us/img811/544/vlcsnap2013051823h56m00.png&lt;/a&gt;\n","torrent":{"xt":"urn:btih:f3faee2968133237aff635cc79922f357985c963","amp;dn":"Hansel+and+Gretel+Witch+Hunters+2013+UNRATED+1080p+x264+-+alrmot","amp;tr":["udp%3A%2F%2Ftracker.openbittorrent.com%3A80","udp%3A%2F%2Fopen.demonii.com%3A1337","udp%3A%2F%2Ftracker.coppersurfer.tk%3A6969","udp%3A%2F%2Fexodus.desync.com%3A6969"],"infoHash":"f3faee2968133237aff635cc79922f357985c963","infoHashBuffer":{"type":"Buffer","data":[243,250,238,41,104,19,50,55,175,246,53,204,121,146,47,53,121,133,201,99]},"announce":[],"urlList":[]}}